<mxfile host="app.diagrams.net" agent="Mozilla/5.0 (Windows NT 10.0; Win64; x64) AppleWebKit/537.36 (KHTML, like Gecko) Chrome/130.0.0.0 Safari/537.36" version="24.8.3">
  <diagram name="Σελίδα-1" id="85jeOsn1tK0RnePGMYa7">
    <mxGraphModel dx="3420" dy="923" grid="1" gridSize="10" guides="1" tooltips="1" connect="1" arrows="1" fold="1" page="1" pageScale="1" pageWidth="827" pageHeight="1169" math="0" shadow="0">
      <root>
        <mxCell id="0" />
        <mxCell id="1" parent="0" />
        <mxCell id="JFQrX85fva7Gra8rmty5-89" style="edgeStyle=none;rounded=0;orthogonalLoop=1;jettySize=auto;html=1;exitX=1;exitY=1;exitDx=0;exitDy=0;curved=1;" edge="1" parent="1" source="JFQrX85fva7Gra8rmty5-61" target="JFQrX85fva7Gra8rmty5-62">
          <mxGeometry relative="1" as="geometry">
            <Array as="points">
              <mxPoint x="-590" y="460" />
            </Array>
          </mxGeometry>
        </mxCell>
        <mxCell id="JFQrX85fva7Gra8rmty5-61" value="DIS" style="ellipse;whiteSpace=wrap;html=1;aspect=fixed;" vertex="1" parent="1">
          <mxGeometry x="-750" y="360" width="80" height="80" as="geometry" />
        </mxCell>
        <mxCell id="JFQrX85fva7Gra8rmty5-90" style="edgeStyle=none;rounded=0;orthogonalLoop=1;jettySize=auto;html=1;exitX=1;exitY=0.5;exitDx=0;exitDy=0;entryX=0;entryY=0.5;entryDx=0;entryDy=0;curved=1;" edge="1" parent="1" source="JFQrX85fva7Gra8rmty5-62" target="JFQrX85fva7Gra8rmty5-63">
          <mxGeometry relative="1" as="geometry">
            <Array as="points">
              <mxPoint x="-470" y="570" />
            </Array>
          </mxGeometry>
        </mxCell>
        <mxCell id="JFQrX85fva7Gra8rmty5-119" style="edgeStyle=none;rounded=0;orthogonalLoop=1;jettySize=auto;html=1;exitX=0;exitY=0.5;exitDx=0;exitDy=0;entryX=0.5;entryY=1;entryDx=0;entryDy=0;strokeColor=none;curved=1;" edge="1" parent="1" source="JFQrX85fva7Gra8rmty5-62" target="JFQrX85fva7Gra8rmty5-61">
          <mxGeometry relative="1" as="geometry">
            <Array as="points">
              <mxPoint x="-690" y="530" />
            </Array>
          </mxGeometry>
        </mxCell>
        <mxCell id="JFQrX85fva7Gra8rmty5-120" style="edgeStyle=none;rounded=0;orthogonalLoop=1;jettySize=auto;html=1;exitX=0;exitY=0.5;exitDx=0;exitDy=0;entryX=0.5;entryY=1;entryDx=0;entryDy=0;curved=1;" edge="1" parent="1" source="JFQrX85fva7Gra8rmty5-62" target="JFQrX85fva7Gra8rmty5-61">
          <mxGeometry relative="1" as="geometry">
            <Array as="points">
              <mxPoint x="-730" y="550" />
            </Array>
          </mxGeometry>
        </mxCell>
        <mxCell id="JFQrX85fva7Gra8rmty5-62" value="IDLE" style="ellipse;whiteSpace=wrap;html=1;aspect=fixed;" vertex="1" parent="1">
          <mxGeometry x="-610" y="550" width="80" height="80" as="geometry" />
        </mxCell>
        <mxCell id="JFQrX85fva7Gra8rmty5-77" style="edgeStyle=none;rounded=0;orthogonalLoop=1;jettySize=auto;html=1;exitX=0.5;exitY=0;exitDx=0;exitDy=0;entryX=0;entryY=1;entryDx=0;entryDy=0;curved=1;" edge="1" parent="1" source="JFQrX85fva7Gra8rmty5-63" target="JFQrX85fva7Gra8rmty5-64">
          <mxGeometry relative="1" as="geometry">
            <Array as="points">
              <mxPoint x="-330" y="490" />
            </Array>
          </mxGeometry>
        </mxCell>
        <mxCell id="JFQrX85fva7Gra8rmty5-91" style="edgeStyle=none;rounded=0;orthogonalLoop=1;jettySize=auto;html=1;exitX=0;exitY=1;exitDx=0;exitDy=0;curved=1;" edge="1" parent="1" source="JFQrX85fva7Gra8rmty5-63" target="JFQrX85fva7Gra8rmty5-62">
          <mxGeometry relative="1" as="geometry">
            <Array as="points">
              <mxPoint x="-460" y="640" />
            </Array>
          </mxGeometry>
        </mxCell>
        <mxCell id="JFQrX85fva7Gra8rmty5-63" value="START" style="ellipse;whiteSpace=wrap;html=1;aspect=fixed;" vertex="1" parent="1">
          <mxGeometry x="-390" y="540" width="80" height="80" as="geometry" />
        </mxCell>
        <mxCell id="JFQrX85fva7Gra8rmty5-79" style="edgeStyle=none;rounded=0;orthogonalLoop=1;jettySize=auto;html=1;exitX=1;exitY=0;exitDx=0;exitDy=0;entryX=0;entryY=0.5;entryDx=0;entryDy=0;curved=1;" edge="1" parent="1" source="JFQrX85fva7Gra8rmty5-64" target="JFQrX85fva7Gra8rmty5-66">
          <mxGeometry relative="1" as="geometry">
            <Array as="points">
              <mxPoint x="-190" y="360" />
            </Array>
          </mxGeometry>
        </mxCell>
        <mxCell id="JFQrX85fva7Gra8rmty5-92" style="edgeStyle=none;rounded=0;orthogonalLoop=1;jettySize=auto;html=1;exitX=0;exitY=0.5;exitDx=0;exitDy=0;curved=1;" edge="1" parent="1" source="JFQrX85fva7Gra8rmty5-64">
          <mxGeometry relative="1" as="geometry">
            <mxPoint x="-540" y="560" as="targetPoint" />
            <Array as="points">
              <mxPoint x="-420" y="480" />
            </Array>
          </mxGeometry>
        </mxCell>
        <mxCell id="JFQrX85fva7Gra8rmty5-64" value="1" style="ellipse;whiteSpace=wrap;html=1;aspect=fixed;" vertex="1" parent="1">
          <mxGeometry x="-290" y="390" width="80" height="80" as="geometry" />
        </mxCell>
        <mxCell id="JFQrX85fva7Gra8rmty5-80" style="edgeStyle=none;rounded=0;orthogonalLoop=1;jettySize=auto;html=1;exitX=1;exitY=0;exitDx=0;exitDy=0;entryX=0;entryY=0;entryDx=0;entryDy=0;curved=1;" edge="1" parent="1" source="JFQrX85fva7Gra8rmty5-66" target="JFQrX85fva7Gra8rmty5-67">
          <mxGeometry relative="1" as="geometry">
            <Array as="points">
              <mxPoint y="300" />
            </Array>
          </mxGeometry>
        </mxCell>
        <mxCell id="JFQrX85fva7Gra8rmty5-93" style="edgeStyle=none;rounded=0;orthogonalLoop=1;jettySize=auto;html=1;exitX=0;exitY=0;exitDx=0;exitDy=0;curved=1;" edge="1" parent="1" source="JFQrX85fva7Gra8rmty5-66" target="JFQrX85fva7Gra8rmty5-62">
          <mxGeometry relative="1" as="geometry">
            <Array as="points">
              <mxPoint x="-360" y="390" />
            </Array>
          </mxGeometry>
        </mxCell>
        <mxCell id="JFQrX85fva7Gra8rmty5-66" value="2" style="ellipse;whiteSpace=wrap;html=1;aspect=fixed;" vertex="1" parent="1">
          <mxGeometry x="-130" y="300" width="80" height="80" as="geometry" />
        </mxCell>
        <mxCell id="JFQrX85fva7Gra8rmty5-81" style="edgeStyle=none;rounded=0;orthogonalLoop=1;jettySize=auto;html=1;exitX=1;exitY=0.5;exitDx=0;exitDy=0;entryX=0;entryY=0;entryDx=0;entryDy=0;curved=1;" edge="1" parent="1" source="JFQrX85fva7Gra8rmty5-67" target="JFQrX85fva7Gra8rmty5-68">
          <mxGeometry relative="1" as="geometry">
            <Array as="points">
              <mxPoint x="210" y="360" />
            </Array>
          </mxGeometry>
        </mxCell>
        <mxCell id="JFQrX85fva7Gra8rmty5-94" style="edgeStyle=none;rounded=0;orthogonalLoop=1;jettySize=auto;html=1;exitX=0.5;exitY=0;exitDx=0;exitDy=0;curved=1;entryX=1;entryY=0;entryDx=0;entryDy=0;" edge="1" parent="1" source="JFQrX85fva7Gra8rmty5-67" target="JFQrX85fva7Gra8rmty5-62">
          <mxGeometry relative="1" as="geometry">
            <mxPoint x="-540" y="570" as="targetPoint" />
            <Array as="points">
              <mxPoint x="-340" y="190" />
            </Array>
          </mxGeometry>
        </mxCell>
        <mxCell id="JFQrX85fva7Gra8rmty5-67" value="3" style="ellipse;whiteSpace=wrap;html=1;aspect=fixed;" vertex="1" parent="1">
          <mxGeometry x="70" y="300" width="80" height="80" as="geometry" />
        </mxCell>
        <mxCell id="JFQrX85fva7Gra8rmty5-82" style="edgeStyle=none;rounded=0;orthogonalLoop=1;jettySize=auto;html=1;exitX=1;exitY=1;exitDx=0;exitDy=0;entryX=0.5;entryY=0;entryDx=0;entryDy=0;curved=1;" edge="1" parent="1" source="JFQrX85fva7Gra8rmty5-68" target="JFQrX85fva7Gra8rmty5-69">
          <mxGeometry relative="1" as="geometry">
            <Array as="points">
              <mxPoint x="340" y="530" />
            </Array>
          </mxGeometry>
        </mxCell>
        <mxCell id="JFQrX85fva7Gra8rmty5-102" style="edgeStyle=none;rounded=0;orthogonalLoop=1;jettySize=auto;html=1;exitX=0.5;exitY=0;exitDx=0;exitDy=0;" edge="1" parent="1" source="JFQrX85fva7Gra8rmty5-68">
          <mxGeometry relative="1" as="geometry">
            <mxPoint x="240.00000000000045" y="340" as="targetPoint" />
          </mxGeometry>
        </mxCell>
        <mxCell id="JFQrX85fva7Gra8rmty5-68" value="4" style="ellipse;whiteSpace=wrap;html=1;aspect=fixed;" vertex="1" parent="1">
          <mxGeometry x="220" y="420" width="80" height="80" as="geometry" />
        </mxCell>
        <mxCell id="JFQrX85fva7Gra8rmty5-104" style="edgeStyle=none;rounded=0;orthogonalLoop=1;jettySize=auto;html=1;exitX=1;exitY=0.5;exitDx=0;exitDy=0;" edge="1" parent="1" source="JFQrX85fva7Gra8rmty5-69">
          <mxGeometry relative="1" as="geometry">
            <mxPoint x="400" y="610" as="targetPoint" />
          </mxGeometry>
        </mxCell>
        <mxCell id="JFQrX85fva7Gra8rmty5-69" value="5" style="ellipse;whiteSpace=wrap;html=1;aspect=fixed;" vertex="1" parent="1">
          <mxGeometry x="290" y="580" width="80" height="80" as="geometry" />
        </mxCell>
        <mxCell id="JFQrX85fva7Gra8rmty5-84" style="edgeStyle=none;rounded=0;orthogonalLoop=1;jettySize=auto;html=1;exitX=0;exitY=1;exitDx=0;exitDy=0;entryX=1;entryY=0;entryDx=0;entryDy=0;curved=1;" edge="1" parent="1" source="JFQrX85fva7Gra8rmty5-70" target="JFQrX85fva7Gra8rmty5-71">
          <mxGeometry relative="1" as="geometry">
            <Array as="points">
              <mxPoint x="280" y="870" />
            </Array>
          </mxGeometry>
        </mxCell>
        <mxCell id="JFQrX85fva7Gra8rmty5-99" style="edgeStyle=none;rounded=0;orthogonalLoop=1;jettySize=auto;html=1;exitX=0.5;exitY=1;exitDx=0;exitDy=0;curved=1;" edge="1" parent="1" source="JFQrX85fva7Gra8rmty5-70">
          <mxGeometry relative="1" as="geometry">
            <mxPoint x="-570" y="630" as="targetPoint" />
            <Array as="points">
              <mxPoint x="230" y="990" />
              <mxPoint x="-170" y="1170" />
              <mxPoint x="-610" y="810" />
            </Array>
          </mxGeometry>
        </mxCell>
        <mxCell id="JFQrX85fva7Gra8rmty5-70" value="6" style="ellipse;whiteSpace=wrap;html=1;aspect=fixed;" vertex="1" parent="1">
          <mxGeometry x="280" y="730" width="80" height="80" as="geometry" />
        </mxCell>
        <mxCell id="JFQrX85fva7Gra8rmty5-98" style="edgeStyle=none;rounded=0;orthogonalLoop=1;jettySize=auto;html=1;exitX=1;exitY=1;exitDx=0;exitDy=0;curved=1;" edge="1" parent="1" source="JFQrX85fva7Gra8rmty5-71">
          <mxGeometry relative="1" as="geometry">
            <mxPoint x="-570" y="630" as="targetPoint" />
            <Array as="points">
              <mxPoint x="-300" y="1250" />
            </Array>
          </mxGeometry>
        </mxCell>
        <mxCell id="JFQrX85fva7Gra8rmty5-71" value="7" style="ellipse;whiteSpace=wrap;html=1;aspect=fixed;" vertex="1" parent="1">
          <mxGeometry x="140" y="870" width="80" height="80" as="geometry" />
        </mxCell>
        <mxCell id="JFQrX85fva7Gra8rmty5-86" style="edgeStyle=none;rounded=0;orthogonalLoop=1;jettySize=auto;html=1;exitX=0;exitY=0.5;exitDx=0;exitDy=0;entryX=1;entryY=1;entryDx=0;entryDy=0;curved=1;" edge="1" parent="1" source="JFQrX85fva7Gra8rmty5-72" target="JFQrX85fva7Gra8rmty5-73">
          <mxGeometry relative="1" as="geometry">
            <Array as="points">
              <mxPoint x="-90" y="980" />
            </Array>
          </mxGeometry>
        </mxCell>
        <mxCell id="JFQrX85fva7Gra8rmty5-97" style="edgeStyle=none;rounded=0;orthogonalLoop=1;jettySize=auto;html=1;exitX=0.5;exitY=1;exitDx=0;exitDy=0;curved=1;" edge="1" parent="1" source="JFQrX85fva7Gra8rmty5-72">
          <mxGeometry relative="1" as="geometry">
            <mxPoint x="-570" y="630" as="targetPoint" />
            <Array as="points">
              <mxPoint x="-390" y="1020" />
            </Array>
          </mxGeometry>
        </mxCell>
        <mxCell id="JFQrX85fva7Gra8rmty5-72" value="8" style="ellipse;whiteSpace=wrap;html=1;aspect=fixed;" vertex="1" parent="1">
          <mxGeometry x="-40" y="940" width="80" height="80" as="geometry" />
        </mxCell>
        <mxCell id="JFQrX85fva7Gra8rmty5-87" style="edgeStyle=none;rounded=0;orthogonalLoop=1;jettySize=auto;html=1;exitX=0;exitY=0;exitDx=0;exitDy=0;entryX=1;entryY=1;entryDx=0;entryDy=0;curved=1;" edge="1" parent="1" source="JFQrX85fva7Gra8rmty5-73" target="JFQrX85fva7Gra8rmty5-74">
          <mxGeometry relative="1" as="geometry">
            <Array as="points">
              <mxPoint x="-270" y="860" />
            </Array>
          </mxGeometry>
        </mxCell>
        <mxCell id="JFQrX85fva7Gra8rmty5-96" style="edgeStyle=none;rounded=0;orthogonalLoop=1;jettySize=auto;html=1;exitX=0;exitY=0.5;exitDx=0;exitDy=0;curved=1;" edge="1" parent="1" source="JFQrX85fva7Gra8rmty5-73">
          <mxGeometry relative="1" as="geometry">
            <mxPoint x="-569.9999999999998" y="630" as="targetPoint" />
            <Array as="points">
              <mxPoint x="-460" y="850" />
            </Array>
          </mxGeometry>
        </mxCell>
        <mxCell id="JFQrX85fva7Gra8rmty5-73" value="PARITY" style="ellipse;whiteSpace=wrap;html=1;aspect=fixed;" vertex="1" parent="1">
          <mxGeometry x="-220" y="880" width="80" height="80" as="geometry" />
        </mxCell>
        <mxCell id="JFQrX85fva7Gra8rmty5-88" style="edgeStyle=none;rounded=0;orthogonalLoop=1;jettySize=auto;html=1;exitX=0.5;exitY=0;exitDx=0;exitDy=0;entryX=0.5;entryY=1;entryDx=0;entryDy=0;curved=1;" edge="1" parent="1" source="JFQrX85fva7Gra8rmty5-74" target="JFQrX85fva7Gra8rmty5-63">
          <mxGeometry relative="1" as="geometry">
            <Array as="points">
              <mxPoint x="-360" y="670" />
            </Array>
          </mxGeometry>
        </mxCell>
        <mxCell id="JFQrX85fva7Gra8rmty5-95" style="edgeStyle=none;rounded=0;orthogonalLoop=1;jettySize=auto;html=1;exitX=0;exitY=0.5;exitDx=0;exitDy=0;entryX=0.5;entryY=1;entryDx=0;entryDy=0;curved=1;" edge="1" parent="1" source="JFQrX85fva7Gra8rmty5-74" target="JFQrX85fva7Gra8rmty5-62">
          <mxGeometry relative="1" as="geometry">
            <Array as="points">
              <mxPoint x="-490" y="730" />
            </Array>
          </mxGeometry>
        </mxCell>
        <mxCell id="JFQrX85fva7Gra8rmty5-74" value="END" style="ellipse;whiteSpace=wrap;html=1;aspect=fixed;" vertex="1" parent="1">
          <mxGeometry x="-370" y="730" width="80" height="80" as="geometry" />
        </mxCell>
        <mxCell id="JFQrX85fva7Gra8rmty5-78" style="edgeStyle=none;rounded=0;orthogonalLoop=1;jettySize=auto;html=1;exitX=0.5;exitY=0;exitDx=0;exitDy=0;entryX=1;entryY=0;entryDx=0;entryDy=0;curved=1;" edge="1" parent="1" source="JFQrX85fva7Gra8rmty5-61" target="JFQrX85fva7Gra8rmty5-61">
          <mxGeometry relative="1" as="geometry">
            <Array as="points">
              <mxPoint x="-710" y="330" />
              <mxPoint x="-670" y="320" />
              <mxPoint x="-660" y="350" />
            </Array>
          </mxGeometry>
        </mxCell>
        <mxCell id="JFQrX85fva7Gra8rmty5-83" style="edgeStyle=none;rounded=0;orthogonalLoop=1;jettySize=auto;html=1;exitX=0.5;exitY=1;exitDx=0;exitDy=0;entryX=0.618;entryY=0.069;entryDx=0;entryDy=0;entryPerimeter=0;curved=1;" edge="1" parent="1" source="JFQrX85fva7Gra8rmty5-69" target="JFQrX85fva7Gra8rmty5-70">
          <mxGeometry relative="1" as="geometry">
            <Array as="points">
              <mxPoint x="350" y="700" />
            </Array>
          </mxGeometry>
        </mxCell>
        <mxCell id="JFQrX85fva7Gra8rmty5-85" style="edgeStyle=none;rounded=0;orthogonalLoop=1;jettySize=auto;html=1;exitX=0;exitY=1;exitDx=0;exitDy=0;entryX=1.015;entryY=0.415;entryDx=0;entryDy=0;entryPerimeter=0;curved=1;" edge="1" parent="1" source="JFQrX85fva7Gra8rmty5-71" target="JFQrX85fva7Gra8rmty5-72">
          <mxGeometry relative="1" as="geometry">
            <Array as="points">
              <mxPoint x="120" y="980" />
            </Array>
          </mxGeometry>
        </mxCell>
        <mxCell id="JFQrX85fva7Gra8rmty5-105" value="IDLE" style="text;html=1;align=center;verticalAlign=middle;resizable=0;points=[];autosize=1;strokeColor=none;fillColor=none;" vertex="1" parent="1">
          <mxGeometry x="225" y="308" width="50" height="30" as="geometry" />
        </mxCell>
        <mxCell id="JFQrX85fva7Gra8rmty5-106" value="IDLE" style="text;html=1;align=center;verticalAlign=middle;resizable=0;points=[];autosize=1;strokeColor=none;fillColor=none;" vertex="1" parent="1">
          <mxGeometry x="365" y="568" width="50" height="30" as="geometry" />
        </mxCell>
        <mxCell id="JFQrX85fva7Gra8rmty5-107" style="edgeStyle=none;rounded=0;orthogonalLoop=1;jettySize=auto;html=1;exitX=1;exitY=0;exitDx=0;exitDy=0;entryX=1;entryY=0.5;entryDx=0;entryDy=0;curved=1;" edge="1" parent="1" source="JFQrX85fva7Gra8rmty5-63" target="JFQrX85fva7Gra8rmty5-63">
          <mxGeometry relative="1" as="geometry">
            <Array as="points">
              <mxPoint x="-260" y="550" />
            </Array>
          </mxGeometry>
        </mxCell>
        <mxCell id="JFQrX85fva7Gra8rmty5-108" style="edgeStyle=none;rounded=0;orthogonalLoop=1;jettySize=auto;html=1;exitX=1;exitY=0.5;exitDx=0;exitDy=0;entryX=1;entryY=1;entryDx=0;entryDy=0;curved=1;" edge="1" parent="1" source="JFQrX85fva7Gra8rmty5-64" target="JFQrX85fva7Gra8rmty5-64">
          <mxGeometry relative="1" as="geometry">
            <Array as="points">
              <mxPoint x="-150" y="470" />
            </Array>
          </mxGeometry>
        </mxCell>
        <mxCell id="JFQrX85fva7Gra8rmty5-109" style="edgeStyle=none;rounded=0;orthogonalLoop=1;jettySize=auto;html=1;exitX=1;exitY=0.5;exitDx=0;exitDy=0;entryX=1;entryY=1;entryDx=0;entryDy=0;curved=1;" edge="1" parent="1" source="JFQrX85fva7Gra8rmty5-66" target="JFQrX85fva7Gra8rmty5-66">
          <mxGeometry relative="1" as="geometry">
            <Array as="points">
              <mxPoint y="400" />
            </Array>
          </mxGeometry>
        </mxCell>
        <mxCell id="JFQrX85fva7Gra8rmty5-110" style="edgeStyle=none;rounded=0;orthogonalLoop=1;jettySize=auto;html=1;exitX=1;exitY=1;exitDx=0;exitDy=0;entryX=0.5;entryY=1;entryDx=0;entryDy=0;curved=1;" edge="1" parent="1" source="JFQrX85fva7Gra8rmty5-67" target="JFQrX85fva7Gra8rmty5-67">
          <mxGeometry relative="1" as="geometry">
            <Array as="points">
              <mxPoint x="150" y="430" />
            </Array>
          </mxGeometry>
        </mxCell>
        <mxCell id="JFQrX85fva7Gra8rmty5-111" style="edgeStyle=none;rounded=0;orthogonalLoop=1;jettySize=auto;html=1;exitX=0;exitY=1;exitDx=0;exitDy=0;entryX=0;entryY=0.5;entryDx=0;entryDy=0;curved=1;" edge="1" parent="1" source="JFQrX85fva7Gra8rmty5-68" target="JFQrX85fva7Gra8rmty5-68">
          <mxGeometry relative="1" as="geometry">
            <Array as="points">
              <mxPoint x="170" y="488" />
            </Array>
          </mxGeometry>
        </mxCell>
        <mxCell id="JFQrX85fva7Gra8rmty5-112" style="edgeStyle=none;rounded=0;orthogonalLoop=1;jettySize=auto;html=1;exitX=0;exitY=1;exitDx=0;exitDy=0;entryX=0;entryY=0.5;entryDx=0;entryDy=0;curved=1;" edge="1" parent="1" source="JFQrX85fva7Gra8rmty5-69" target="JFQrX85fva7Gra8rmty5-69">
          <mxGeometry relative="1" as="geometry">
            <Array as="points">
              <mxPoint x="240" y="648" />
            </Array>
          </mxGeometry>
        </mxCell>
        <mxCell id="JFQrX85fva7Gra8rmty5-113" style="edgeStyle=none;rounded=0;orthogonalLoop=1;jettySize=auto;html=1;exitX=0;exitY=0.5;exitDx=0;exitDy=0;entryX=0;entryY=0;entryDx=0;entryDy=0;curved=1;" edge="1" parent="1" source="JFQrX85fva7Gra8rmty5-70" target="JFQrX85fva7Gra8rmty5-70">
          <mxGeometry relative="1" as="geometry">
            <Array as="points">
              <mxPoint x="250" y="740" />
            </Array>
          </mxGeometry>
        </mxCell>
        <mxCell id="JFQrX85fva7Gra8rmty5-114" style="edgeStyle=none;rounded=0;orthogonalLoop=1;jettySize=auto;html=1;exitX=0;exitY=0.5;exitDx=0;exitDy=0;entryX=0;entryY=0;entryDx=0;entryDy=0;curved=1;" edge="1" parent="1" source="JFQrX85fva7Gra8rmty5-71" target="JFQrX85fva7Gra8rmty5-71">
          <mxGeometry relative="1" as="geometry">
            <Array as="points">
              <mxPoint x="100" y="870" />
            </Array>
          </mxGeometry>
        </mxCell>
        <mxCell id="JFQrX85fva7Gra8rmty5-116" style="edgeStyle=none;rounded=0;orthogonalLoop=1;jettySize=auto;html=1;exitX=0;exitY=0;exitDx=0;exitDy=0;entryX=0.5;entryY=0;entryDx=0;entryDy=0;curved=1;" edge="1" parent="1" source="JFQrX85fva7Gra8rmty5-72" target="JFQrX85fva7Gra8rmty5-72">
          <mxGeometry relative="1" as="geometry">
            <Array as="points">
              <mxPoint x="-30" y="900" />
            </Array>
          </mxGeometry>
        </mxCell>
        <mxCell id="JFQrX85fva7Gra8rmty5-117" style="edgeStyle=none;rounded=0;orthogonalLoop=1;jettySize=auto;html=1;exitX=0.5;exitY=0;exitDx=0;exitDy=0;entryX=1;entryY=0;entryDx=0;entryDy=0;curved=1;" edge="1" parent="1" source="JFQrX85fva7Gra8rmty5-73" target="JFQrX85fva7Gra8rmty5-73">
          <mxGeometry relative="1" as="geometry">
            <Array as="points">
              <mxPoint x="-140" y="840" />
            </Array>
          </mxGeometry>
        </mxCell>
        <mxCell id="JFQrX85fva7Gra8rmty5-118" style="edgeStyle=none;rounded=0;orthogonalLoop=1;jettySize=auto;html=1;exitX=1;exitY=0;exitDx=0;exitDy=0;entryX=1;entryY=0.5;entryDx=0;entryDy=0;curved=1;" edge="1" parent="1" source="JFQrX85fva7Gra8rmty5-74" target="JFQrX85fva7Gra8rmty5-74">
          <mxGeometry relative="1" as="geometry">
            <Array as="points">
              <mxPoint x="-250" y="742" />
            </Array>
          </mxGeometry>
        </mxCell>
        <mxCell id="JFQrX85fva7Gra8rmty5-121" value="Rx_sample_ENABLE == 0" style="text;html=1;align=center;verticalAlign=middle;resizable=0;points=[];autosize=1;strokeColor=none;fillColor=none;" vertex="1" parent="1">
          <mxGeometry x="-120" y="388" width="160" height="30" as="geometry" />
        </mxCell>
        <mxCell id="JFQrX85fva7Gra8rmty5-122" value="Rx_sample_ENABLE == 0" style="text;html=1;align=center;verticalAlign=middle;resizable=0;points=[];autosize=1;strokeColor=none;fillColor=none;" vertex="1" parent="1">
          <mxGeometry x="50" y="420" width="160" height="30" as="geometry" />
        </mxCell>
        <mxCell id="JFQrX85fva7Gra8rmty5-123" value="Rx_sample_ENABLE == 0" style="text;html=1;align=center;verticalAlign=middle;resizable=0;points=[];autosize=1;strokeColor=none;fillColor=none;" vertex="1" parent="1">
          <mxGeometry x="120" y="510" width="160" height="30" as="geometry" />
        </mxCell>
        <mxCell id="JFQrX85fva7Gra8rmty5-124" value="..." style="text;html=1;align=center;verticalAlign=middle;resizable=0;points=[];autosize=1;strokeColor=none;fillColor=none;" vertex="1" parent="1">
          <mxGeometry x="240" y="640" width="30" height="30" as="geometry" />
        </mxCell>
        <mxCell id="JFQrX85fva7Gra8rmty5-125" value="..." style="text;html=1;align=center;verticalAlign=middle;resizable=0;points=[];autosize=1;strokeColor=none;fillColor=none;" vertex="1" parent="1">
          <mxGeometry x="-180" y="460" width="30" height="30" as="geometry" />
        </mxCell>
        <mxCell id="JFQrX85fva7Gra8rmty5-127" value="bit_stable == 1" style="text;html=1;align=center;verticalAlign=middle;resizable=0;points=[];autosize=1;strokeColor=none;fillColor=none;" vertex="1" parent="1">
          <mxGeometry x="315" y="500" width="100" height="30" as="geometry" />
        </mxCell>
        <mxCell id="JFQrX85fva7Gra8rmty5-128" value="bit_stable == 1" style="text;html=1;align=center;verticalAlign=middle;resizable=0;points=[];autosize=1;strokeColor=none;fillColor=none;" vertex="1" parent="1">
          <mxGeometry x="340" y="680" width="100" height="30" as="geometry" />
        </mxCell>
        <mxCell id="JFQrX85fva7Gra8rmty5-129" value="bit_stable == 0" style="text;html=1;align=center;verticalAlign=middle;resizable=0;points=[];autosize=1;strokeColor=none;fillColor=none;" vertex="1" parent="1">
          <mxGeometry x="-380" y="278" width="100" height="30" as="geometry" />
        </mxCell>
        <mxCell id="JFQrX85fva7Gra8rmty5-130" value="bit_stable == 0 or&lt;br&gt;cur_bit != 0" style="text;html=1;align=center;verticalAlign=middle;resizable=0;points=[];autosize=1;strokeColor=none;fillColor=none;" vertex="1" parent="1">
          <mxGeometry x="-510" y="630" width="120" height="40" as="geometry" />
        </mxCell>
        <mxCell id="JFQrX85fva7Gra8rmty5-131" value="RxD = 0 &amp;amp;&amp;amp; Rx_EN" style="text;html=1;align=center;verticalAlign=middle;resizable=0;points=[];autosize=1;strokeColor=none;fillColor=none;" vertex="1" parent="1">
          <mxGeometry x="-515" y="540" width="130" height="30" as="geometry" />
        </mxCell>
        <mxCell id="JFQrX85fva7Gra8rmty5-132" value="bad parity or&amp;nbsp;&lt;div&gt;bit_stable == 0&lt;/div&gt;" style="text;html=1;align=center;verticalAlign=middle;resizable=0;points=[];autosize=1;strokeColor=none;fillColor=none;" vertex="1" parent="1">
          <mxGeometry x="-310" y="910" width="100" height="40" as="geometry" />
        </mxCell>
        <mxCell id="JFQrX85fva7Gra8rmty5-133" value="cur_bit == 0 and RxD == 0&lt;br&gt;and bit_stable" style="text;html=1;align=center;verticalAlign=middle;resizable=0;points=[];autosize=1;strokeColor=none;fillColor=none;" vertex="1" parent="1">
          <mxGeometry x="-350" y="665" width="160" height="40" as="geometry" />
        </mxCell>
        <mxCell id="JFQrX85fva7Gra8rmty5-134" value="!bit_stable or RxD == 1" style="text;html=1;align=center;verticalAlign=middle;resizable=0;points=[];autosize=1;strokeColor=none;fillColor=none;" vertex="1" parent="1">
          <mxGeometry x="-510" y="690" width="150" height="30" as="geometry" />
        </mxCell>
        <mxCell id="JFQrX85fva7Gra8rmty5-135" value="Rx_EN" style="text;html=1;align=center;verticalAlign=middle;resizable=0;points=[];autosize=1;strokeColor=none;fillColor=none;" vertex="1" parent="1">
          <mxGeometry x="-630" y="440" width="60" height="30" as="geometry" />
        </mxCell>
        <mxCell id="JFQrX85fva7Gra8rmty5-136" value="!Rx_EN" style="text;html=1;align=center;verticalAlign=middle;resizable=0;points=[];autosize=1;strokeColor=none;fillColor=none;" vertex="1" parent="1">
          <mxGeometry x="-730" y="565" width="60" height="30" as="geometry" />
        </mxCell>
        <mxCell id="JFQrX85fva7Gra8rmty5-138" value="Combinational&lt;br&gt;Output&lt;br&gt;Logic" style="whiteSpace=wrap;html=1;aspect=fixed;" vertex="1" parent="1">
          <mxGeometry x="690" y="1035" width="110" height="110" as="geometry" />
        </mxCell>
        <mxCell id="JFQrX85fva7Gra8rmty5-143" style="edgeStyle=orthogonalEdgeStyle;rounded=0;orthogonalLoop=1;jettySize=auto;html=1;exitX=1;exitY=0.5;exitDx=0;exitDy=0;entryX=1;entryY=0.25;entryDx=0;entryDy=0;" edge="1" parent="1" source="JFQrX85fva7Gra8rmty5-139" target="JFQrX85fva7Gra8rmty5-140">
          <mxGeometry relative="1" as="geometry" />
        </mxCell>
        <mxCell id="JFQrX85fva7Gra8rmty5-139" value="Combinational&lt;br&gt;State&lt;br&gt;Logic" style="whiteSpace=wrap;html=1;aspect=fixed;" vertex="1" parent="1">
          <mxGeometry x="500" y="860" width="110" height="110" as="geometry" />
        </mxCell>
        <mxCell id="JFQrX85fva7Gra8rmty5-145" style="edgeStyle=orthogonalEdgeStyle;rounded=0;orthogonalLoop=1;jettySize=auto;html=1;exitX=1;exitY=0.5;exitDx=0;exitDy=0;entryX=0;entryY=0.5;entryDx=0;entryDy=0;" edge="1" parent="1" source="JFQrX85fva7Gra8rmty5-140" target="JFQrX85fva7Gra8rmty5-138">
          <mxGeometry relative="1" as="geometry" />
        </mxCell>
        <mxCell id="JFQrX85fva7Gra8rmty5-149" style="edgeStyle=orthogonalEdgeStyle;rounded=0;orthogonalLoop=1;jettySize=auto;html=1;exitX=0;exitY=0.25;exitDx=0;exitDy=0;entryX=0;entryY=0.5;entryDx=0;entryDy=0;" edge="1" parent="1" source="JFQrX85fva7Gra8rmty5-140" target="JFQrX85fva7Gra8rmty5-139">
          <mxGeometry relative="1" as="geometry" />
        </mxCell>
        <mxCell id="JFQrX85fva7Gra8rmty5-140" value="State Register" style="whiteSpace=wrap;html=1;aspect=fixed;" vertex="1" parent="1">
          <mxGeometry x="500" y="1035" width="110" height="110" as="geometry" />
        </mxCell>
        <mxCell id="JFQrX85fva7Gra8rmty5-144" value="next_state" style="text;html=1;align=center;verticalAlign=middle;resizable=0;points=[];autosize=1;strokeColor=none;fillColor=none;rotation=90;" vertex="1" parent="1">
          <mxGeometry x="610" y="970" width="80" height="30" as="geometry" />
        </mxCell>
        <mxCell id="JFQrX85fva7Gra8rmty5-150" value="cur_state (flags)" style="text;html=1;align=center;verticalAlign=middle;resizable=0;points=[];autosize=1;strokeColor=none;fillColor=none;rotation=270;" vertex="1" parent="1">
          <mxGeometry x="410" y="980" width="110" height="30" as="geometry" />
        </mxCell>
        <mxCell id="JFQrX85fva7Gra8rmty5-153" value="" style="endArrow=classic;html=1;rounded=0;entryX=0;entryY=0.25;entryDx=0;entryDy=0;" edge="1" parent="1" target="JFQrX85fva7Gra8rmty5-139">
          <mxGeometry width="50" height="50" relative="1" as="geometry">
            <mxPoint x="370" y="888" as="sourcePoint" />
            <mxPoint x="350" y="905" as="targetPoint" />
          </mxGeometry>
        </mxCell>
        <mxCell id="JFQrX85fva7Gra8rmty5-154" value="Input" style="text;html=1;align=center;verticalAlign=middle;resizable=0;points=[];autosize=1;strokeColor=none;fillColor=none;" vertex="1" parent="1">
          <mxGeometry x="380" y="860" width="50" height="30" as="geometry" />
        </mxCell>
        <mxCell id="JFQrX85fva7Gra8rmty5-155" value="MOORE RECEIVER" style="text;html=1;align=center;verticalAlign=middle;resizable=0;points=[];autosize=1;strokeColor=none;fillColor=none;fontSize=29;" vertex="1" parent="1">
          <mxGeometry x="-120" y="90" width="290" height="50" as="geometry" />
        </mxCell>
        <mxCell id="JFQrX85fva7Gra8rmty5-156" value="INPUTS:&amp;nbsp; &amp;nbsp; &amp;nbsp; &amp;nbsp; &amp;nbsp; &amp;nbsp; &amp;nbsp; &amp;nbsp; &amp;nbsp; &amp;nbsp; &amp;nbsp; &amp;nbsp; &amp;nbsp; &amp;nbsp; &amp;nbsp; &amp;nbsp; &amp;nbsp; &amp;nbsp; &amp;nbsp; &amp;nbsp; &amp;nbsp; &amp;nbsp; &amp;nbsp; &amp;nbsp; &amp;nbsp; &amp;nbsp; &amp;nbsp; &amp;nbsp; &amp;nbsp; &amp;nbsp; &amp;nbsp; &amp;nbsp; &amp;nbsp; &amp;nbsp; &amp;nbsp; &amp;nbsp; &amp;nbsp; &amp;nbsp; &amp;nbsp; &amp;nbsp; &amp;nbsp; &amp;nbsp; &amp;nbsp; &amp;nbsp; &amp;nbsp; &amp;nbsp; &amp;nbsp; &amp;nbsp; &amp;nbsp; &amp;nbsp;&amp;nbsp;&lt;div&gt;&lt;span style=&quot;white-space: pre;&quot;&gt;&#x9;&lt;/span&gt;bit_stable, Rx_sample_ENABLE, cur_bit, Rx_EN, RxD, parity&lt;br&gt;OUTPUTS:&amp;nbsp; &amp;nbsp; &amp;nbsp; &amp;nbsp; &amp;nbsp; &amp;nbsp; &amp;nbsp; &amp;nbsp; &amp;nbsp; &amp;nbsp; &amp;nbsp; &amp;nbsp; &amp;nbsp; &amp;nbsp; &amp;nbsp; &amp;nbsp; &amp;nbsp; &amp;nbsp; &amp;nbsp; &amp;nbsp; &amp;nbsp; &amp;nbsp; &amp;nbsp; &amp;nbsp; &amp;nbsp; &amp;nbsp; &amp;nbsp; &amp;nbsp; &amp;nbsp; &amp;nbsp; &amp;nbsp; &amp;nbsp; &amp;nbsp; &amp;nbsp; &amp;nbsp; &amp;nbsp; &amp;nbsp; &amp;nbsp; &amp;nbsp; &amp;nbsp; &amp;nbsp; &amp;nbsp; &amp;nbsp; &amp;nbsp; &amp;nbsp; &amp;nbsp; &amp;nbsp; &amp;nbsp; &amp;nbsp;&lt;br&gt;idle, disabled, check_parity, end_sequence, start_sequence&lt;/div&gt;" style="text;html=1;align=center;verticalAlign=middle;resizable=0;points=[];autosize=1;strokeColor=none;fillColor=none;" vertex="1" parent="1">
          <mxGeometry x="350" y="268" width="410" height="70" as="geometry" />
        </mxCell>
        <mxCell id="JFQrX85fva7Gra8rmty5-157" value="The FSM will output these flags regarless of input --&amp;gt; Moore" style="text;html=1;align=center;verticalAlign=middle;resizable=0;points=[];autosize=1;strokeColor=none;fillColor=none;" vertex="1" parent="1">
          <mxGeometry x="360" y="370" width="340" height="30" as="geometry" />
        </mxCell>
        <mxCell id="JFQrX85fva7Gra8rmty5-158" value="Use the information Accordingly to set signals" style="text;html=1;align=center;verticalAlign=middle;resizable=0;points=[];autosize=1;strokeColor=none;fillColor=none;" vertex="1" parent="1">
          <mxGeometry x="360" y="400" width="270" height="30" as="geometry" />
        </mxCell>
      </root>
    </mxGraphModel>
  </diagram>
</mxfile>
